<svg width="60" height="60" viewBox="0 0 60 60" fill="none" xmlns="http://www.w3.org/2000/svg">
  <g clip-path="url(#clip0_4780_3)">
    <path d="M59.9678 26.2056L59.9649 23.5912C59.9615 21.1192 57.9257 19.1027 55.4266 19.0963C55.4225 19.0963 55.4186 19.0963 55.4146 19.0963C54.1961 19.0963 53.0536 19.5673 52.1969 20.423C51.3504 21.2684 50.8851 22.3902 50.8867 23.5813L50.9209 54.088C50.9213 54.4337 51.0236 54.7717 51.2151 55.0596L53.9793 59.2155C54.3041 59.704 54.8513 59.9981 55.4379 59.9998C55.4396 59.9998 55.4412 59.9998 55.443 59.9998C56.0276 59.9998 56.5743 59.709 56.901 59.2237L59.6993 55.0678C59.895 54.7772 59.9995 54.4345 59.9991 54.084L59.9678 26.2056ZM54.4025 23.5772C54.402 23.3272 54.5011 23.0904 54.6814 22.9104C54.8741 22.7178 55.1345 22.6119 55.4148 22.6119C55.4158 22.6119 55.4167 22.6119 55.4177 22.6119C55.9858 22.6134 56.4486 23.0549 56.4494 23.5957L56.4507 24.7727H54.4038L54.4025 23.5772ZM54.4076 28.2884H56.4545L56.476 47.3894H54.4291L54.4076 28.2884ZM55.4519 55.0815L54.436 53.5541L54.4331 50.9051H56.48L56.4829 53.5505L55.4519 55.0815Z" fill="#F50E30"/>
    <path d="M41.5701 0H5.27441C2.36664 0 0.000976562 2.36566 0.000976562 5.27344V54.7266C0.000976562 57.6343 2.36664 60 5.27441 60H41.5701C44.4779 60 46.8435 57.6343 46.8435 54.7266V5.27344C46.8435 2.36566 44.4779 0 41.5701 0ZM43.3279 54.7266C43.3279 55.6958 42.5393 56.4844 41.5701 56.4844H5.27441C4.30516 56.4844 3.5166 55.6958 3.5166 54.7266V5.27344C3.5166 4.30418 4.30516 3.51562 5.27441 3.51562H41.5701C42.5393 3.51562 43.3279 4.30418 43.3279 5.27344V54.7266Z" fill="#F50E30"/>
    <path d="M36.8572 9.92343H9.98926C9.01848 9.92343 8.23145 10.7105 8.23145 11.6812C8.23145 12.652 9.01848 13.4391 9.98926 13.4391H36.8572C37.828 13.4391 38.615 12.652 38.615 11.6812C38.615 10.7105 37.828 9.92343 36.8572 9.92343Z" fill="#F50E30"/>
    <path d="M36.8572 17.5058H9.98926C9.01848 17.5058 8.23145 18.2928 8.23145 19.2636C8.23145 20.2344 9.01848 21.0214 9.98926 21.0214H36.8572C37.828 21.0214 38.615 20.2344 38.615 19.2636C38.615 18.2928 37.828 17.5058 36.8572 17.5058Z" fill="#F50E30"/>
    <path d="M36.8572 25.0882H9.98926C9.01848 25.0882 8.23145 25.8752 8.23145 26.846C8.23145 27.8168 9.01848 28.6038 9.98926 28.6038H36.8572C37.828 28.6038 38.615 27.8168 38.615 26.846C38.615 25.8752 37.828 25.0882 36.8572 25.0882Z" fill="#F50E30"/>
    <path d="M26.5641 32.6706H9.98926C9.01848 32.6706 8.23145 33.4576 8.23145 34.4284C8.23145 35.3992 9.01848 36.1862 9.98926 36.1862H26.5641C27.5349 36.1862 28.322 35.3992 28.322 34.4284C28.322 33.4576 27.5349 32.6706 26.5641 32.6706Z" fill="#F50E30"/>
    <path d="M32.585 38.1546C28.2959 38.1546 24.8066 41.593 24.8066 45.8193C24.8066 50.0455 28.296 53.4838 32.585 53.4838C36.8739 53.4838 40.3633 50.0455 40.3633 45.8193C40.3633 41.593 36.874 38.1546 32.585 38.1546ZM32.585 49.9683C30.2344 49.9683 28.3223 48.1071 28.3223 45.8194C28.3223 43.5316 30.2345 41.6703 32.585 41.6703C34.9354 41.6703 36.8477 43.5316 36.8477 45.8194C36.8477 48.1071 34.9355 49.9683 32.585 49.9683Z" fill="#F50E30"/>
  </g>
  <defs>
    <clipPath id="clip0_4780_3">
      <rect width="60" height="60" fill="white"/>
    </clipPath>
  </defs>
</svg>