<svg width="81" height="59" viewBox="0 0 81 59" fill="none" xmlns="http://www.w3.org/2000/svg">
  <path d="M77.1853 5.03672C74.2861 1.45927 68.9335 0 58.7111 0H21.6039C11.1476 0 5.70423 1.5534 2.81598 5.36214C0 9.07568 0 14.5473 0 22.1201V36.5539C0 51.2249 3.34114 58.6737 21.6039 58.6737H58.7114C67.5761 58.6737 72.4884 57.386 75.6663 54.229C78.9253 50.9914 80.3158 45.7054 80.3158 36.5539V22.1201C80.3158 14.1339 80.0979 8.63004 77.1853 5.03672ZM51.563 31.3297L34.7127 40.4713C34.336 40.6757 33.9241 40.7771 33.5127 40.7771C33.0468 40.7771 32.582 40.6469 32.1704 40.3882C31.3952 39.9006 30.9218 39.0284 30.9218 38.0877V19.8632C30.9218 18.924 31.3939 18.0526 32.1675 17.5648C32.9414 17.0769 33.9039 17.0436 34.7068 17.4766L51.557 26.5592C52.4143 27.0213 52.9527 27.94 52.954 28.9423C52.955 29.9455 52.419 30.8655 51.563 31.3297Z" fill="#FF0000"/>
</svg>