<svg width="52" height="52" viewBox="0 0 52 52" fill="none" xmlns="http://www.w3.org/2000/svg">
<circle cx="26" cy="26" r="26" fill="#F50E30"/>
<path d="M39.7165 21.5002H36.3325L35.4325 19.1602C34.4965 16.7482 32.1565 15.2002 29.5645 15.2002H22.4365C19.8445 15.2002 17.5405 16.7482 16.5685 19.1602L15.6325 21.5002H12.2485C11.8885 21.5002 11.5645 21.7882 11.5645 22.1842C11.5645 22.2202 11.5645 22.2922 11.6005 22.3282L11.9245 23.6962C11.9965 23.9842 12.2845 24.2002 12.5725 24.2002H13.7605C12.9685 24.8842 12.5005 25.8562 12.5005 26.9002V29.6002C12.5005 30.4642 12.8245 31.2922 13.4005 31.9762V35.0002C13.4005 36.0082 14.1925 36.8002 15.2005 36.8002H17.0005C18.0085 36.8002 18.8005 36.0082 18.8005 35.0002V33.2002H33.2005V35.0002C33.2005 36.0082 33.9925 36.8002 35.0005 36.8002H36.8005C37.8085 36.8002 38.6005 36.0082 38.6005 35.0002V31.9402C39.1765 31.2922 39.5005 30.4642 39.5005 29.5642V26.8642C39.5005 25.8202 39.0325 24.8482 38.2405 24.1642H39.3565C39.6805 24.1642 39.9325 23.9482 40.0045 23.6602L40.3285 22.2922C40.4005 21.9322 40.1845 21.5722 39.8245 21.4642C39.8245 21.5002 39.7885 21.5002 39.7165 21.5002ZM19.9165 20.4922C20.3125 19.4482 21.3205 18.8002 22.4365 18.8002H29.5645C30.6805 18.8002 31.6885 19.4842 32.0845 20.4922L33.2005 23.3002H18.8005L19.9165 20.4922ZM17.0005 29.6002C16.0645 29.6722 15.2725 28.9522 15.2005 28.0162C15.2005 27.9442 15.2005 27.8722 15.2005 27.8002C15.1285 26.8642 15.8485 26.0722 16.7845 26.0002H17.0005C18.0805 26.0002 19.7005 27.6202 19.7005 28.7002C19.7005 29.7802 18.0805 29.6002 17.0005 29.6002ZM35.0005 29.6002C33.9205 29.6002 32.3005 29.7802 32.3005 28.7002C32.3005 27.6202 33.9205 26.0002 35.0005 26.0002C35.9365 25.9282 36.7285 26.6482 36.8005 27.5842V27.8002C36.8725 28.7362 36.1525 29.5282 35.2165 29.6002C35.1445 29.6002 35.0725 29.6002 35.0005 29.6002Z" fill="white"/>
</svg>
