<svg width="52" height="52" viewBox="0 0 52 52" fill="none" xmlns="http://www.w3.org/2000/svg">
  <circle cx="26" cy="26" r="26" fill="#F50E30"/>
  <g clip-path="url(#clip0_0_1)">
    <path d="M23.3776 36.7723C22.4721 37.0599 21.4874 37.0445 20.583 36.7154C19.6786 36.3861 18.9147 35.7651 18.4058 34.9629C17.4563 34.9233 16.5365 34.572 15.7993 33.9535C15.7062 33.8755 15.6167 33.7936 15.5312 33.7085L13.1796 38.6298C13.003 38.9992 13.0533 39.437 13.3087 39.757C13.5641 40.077 13.98 40.2228 14.3796 40.1322L19.0933 39.0632L21.2227 43.4022C21.4023 43.7681 21.7745 43.9999 22.1815 43.9999H22.1873C22.5968 43.9977 22.9689 43.7615 23.1453 43.3921L25.8789 37.6715C24.9682 37.641 24.0926 37.3233 23.3776 36.7723Z" fill="white"/>
    <path d="M36.2466 33.9535C35.5095 34.572 34.5894 34.923 33.6401 34.9626C33.1312 35.7651 32.3671 36.3861 31.4627 36.7152C30.5585 37.0445 29.5738 37.0599 28.6683 36.7723C27.9534 37.3233 27.0778 37.641 26.167 37.6715L28.9004 43.3921C29.077 43.7615 29.4491 43.9974 29.8587 43.9996H29.8642C30.2715 43.9996 30.6434 43.7681 30.823 43.4022L32.9527 39.0632L37.6663 40.1319C38.0657 40.2228 38.4815 40.077 38.7369 39.757C38.9927 39.437 39.0426 38.9992 38.8663 38.6298L36.5144 33.7085C36.429 33.7936 36.3397 33.8752 36.2466 33.9535Z" fill="white"/>
    <path d="M39.1501 21.1119C39.533 20.6216 39.6907 19.9896 39.583 19.3782C39.475 18.7668 39.1109 18.2269 38.5835 17.897C38.168 17.6372 37.9823 17.128 38.1339 16.6616C38.3259 16.07 38.258 15.4223 37.9474 14.8846C37.637 14.3468 37.11 13.9642 36.5016 13.8345C36.0223 13.7326 35.6738 13.3174 35.6565 12.8276C35.6345 12.2058 35.3492 11.6205 34.8737 11.2215C34.398 10.8221 33.7721 10.643 33.1557 10.7293C32.6707 10.7977 32.201 10.5263 32.0173 10.072C31.7841 9.49523 31.3158 9.0426 30.7322 8.83029C30.1488 8.61798 29.499 8.66357 28.9499 8.95553C28.5171 9.18542 27.9831 9.09121 27.6549 8.72702C27.2388 8.26504 26.6439 8 26.0229 8C25.4019 8 24.807 8.26504 24.3909 8.72702C24.0627 9.09121 23.5287 9.18542 23.0959 8.95553C22.5468 8.66357 21.897 8.61798 21.3136 8.83029C20.73 9.0426 20.2617 9.49523 20.0285 10.072C19.8448 10.5263 19.3754 10.7977 18.89 10.7293C18.274 10.643 17.6478 10.8221 17.1721 11.2215C16.6964 11.6205 16.4113 12.2058 16.3893 12.8276C16.372 13.3174 16.0237 13.7326 15.5442 13.8348C14.9358 13.9642 14.4087 14.3468 14.0984 14.8846C13.7877 15.4223 13.7199 16.07 13.9119 16.6616C14.0632 17.128 13.8778 17.6372 13.4623 17.8973C12.9349 18.2269 12.5707 18.7668 12.4628 19.3782C12.3551 19.9899 12.5128 20.6216 12.8957 21.1121C13.1972 21.4983 13.1972 22.0405 12.8957 22.4266C12.5128 22.9169 12.3551 23.5489 12.4628 24.1603C12.5707 24.7719 12.9349 25.3116 13.4623 25.6415C13.8778 25.9013 14.0635 26.4105 13.9122 26.8769C13.7199 27.4685 13.788 28.1162 14.0984 28.6539C14.409 29.1917 14.9358 29.5743 15.5442 29.704C16.0237 29.8058 16.372 30.2211 16.3893 30.7111C16.4113 31.3327 16.6966 31.9182 17.1723 32.3173C17.648 32.7164 18.2743 32.8957 18.89 32.8092C19.3754 32.7414 19.8448 33.0122 20.0285 33.4668C20.2617 34.0433 20.7303 34.4959 21.3136 34.7082C21.8973 34.9205 22.5468 34.8749 23.0961 34.5832C23.2544 34.4989 23.4266 34.4583 23.5968 34.4583C23.8921 34.4583 24.1827 34.5805 24.3909 34.8115C24.8073 35.2737 25.4022 35.5385 26.0229 35.5385C26.6439 35.5385 27.2388 35.2734 27.6552 34.8115C27.9831 34.4473 28.5171 34.3533 28.9499 34.5832C29.4992 34.8752 30.1488 34.9205 30.7324 34.7082C31.3158 34.4959 31.7841 34.0433 32.0173 33.4668C32.201 33.0122 32.6707 32.7411 33.156 32.8092C33.7718 32.8955 34.398 32.7164 34.8737 32.3173C35.3494 31.9182 35.6348 31.3327 35.6568 30.7111C35.6738 30.2211 36.0223 29.8061 36.5016 29.704C37.11 29.5743 37.637 29.1917 37.9477 28.6539C38.258 28.1162 38.3259 27.4685 38.1339 26.8769C37.9826 26.4108 38.168 25.9013 38.5835 25.6415C39.1111 25.3116 39.4753 24.7719 39.5833 24.1605C39.6909 23.5489 39.5333 22.9172 39.1504 22.4266C38.8486 22.0402 38.8486 21.4983 39.1501 21.1119ZM26.0229 31.1283C20.8624 31.1283 16.6637 26.9299 16.6637 21.7694C16.6637 16.6086 20.8624 12.4102 26.0229 12.4102C31.1834 12.4102 35.3818 16.6086 35.3818 21.7694C35.3818 26.9299 31.1834 31.1283 26.0229 31.1283Z" fill="white"/>
    <path d="M26.0227 14.5464C22.0399 14.5464 18.7998 17.7865 18.7998 21.7693C18.7998 25.7518 22.0399 28.992 26.0227 28.992C30.0055 28.992 33.2454 25.7518 33.2454 21.7693C33.2454 17.7865 30.0053 14.5464 26.0227 14.5464ZM21.5112 20.4444C21.9284 20.0272 22.6046 20.0272 23.0218 20.4444L25.1504 22.573L29.0236 18.6998C29.4408 18.2825 30.117 18.2825 30.5343 18.6998C30.9515 19.1167 30.9515 19.7932 30.5343 20.2101L25.9057 24.8389C25.7055 25.0391 25.4336 25.1517 25.1504 25.1517C24.8673 25.1517 24.5956 25.0391 24.3951 24.8389L21.5115 21.955C21.094 21.5378 21.094 20.8616 21.5112 20.4444Z" fill="white"/>
  </g>
  <defs>
    <clipPath id="clip0_0_1">
      <rect width="36" height="36" fill="white" transform="translate(8 8)"/>
    </clipPath>
  </defs>
</svg>