<svg width="52" height="52" viewBox="0 0 52 52" fill="none" xmlns="http://www.w3.org/2000/svg">
  <circle cx="26" cy="26" r="26" fill="#F50E30"/>
  <g clip-path="url(#clip0_0_1)">
    <g clip-path="url(#clip1_0_1)">
      <path d="M18.7148 15.3358L19.6894 16.3339V12.8296H16.7402V16.3339L17.7148 15.3358C17.8529 15.1946 18.0342 15.1233 18.2148 15.1233C18.3954 15.1233 18.5768 15.1946 18.7148 15.3358Z" fill="white"/>
      <path d="M26.0498 13.557C26.0498 13.1559 25.7381 12.8291 25.3415 12.8291H21.1061V18.0848C21.1061 18.3832 20.9361 18.6446 20.667 18.761C20.582 18.7974 20.4899 18.8127 20.3979 18.8127C20.2137 18.8127 20.0366 18.7392 19.895 18.6016L18.2164 16.8764L16.5308 18.6016C16.3324 18.8127 16.0279 18.871 15.7588 18.761C15.4967 18.6446 15.3267 18.3832 15.3267 18.0848V12.8291H11.0843C10.6947 12.8291 10.376 13.1559 10.376 13.557V21.7019H16.2687L15.9429 21.367C15.6667 21.0839 15.6667 20.6253 15.9429 20.3406C16.2191 20.0575 16.6653 20.0575 16.9416 20.3406L18.4785 21.913C18.5422 21.9785 18.5918 22.0593 18.6343 22.154C18.7051 22.3286 18.7051 22.5325 18.6343 22.7064C18.5918 22.7938 18.5422 22.8746 18.4785 22.9467L16.9416 24.5197C16.807 24.6653 16.6228 24.7308 16.4458 24.7308C16.2616 24.7308 16.0775 24.6653 15.9429 24.5197C15.6667 24.2358 15.6667 23.7772 15.9429 23.4926L16.2687 23.1577H10.376V27.9628H26.0498V13.557Z" fill="white"/>
      <path d="M40.7178 29.4185H25.214H9.7102C9.32067 29.4185 9.00195 29.7453 9.00195 30.1464V35.94C9.00195 36.3404 9.32067 36.6679 9.7102 36.6679H11.9979C11.9979 33.9309 14.1581 31.7107 16.8211 31.7107C19.4771 31.7107 21.6444 33.9309 21.6444 36.6679H30.363C30.363 33.9309 32.5233 31.7107 35.1863 31.7107C37.8423 31.7107 40.0096 33.9309 40.0096 36.6679H42.2902C42.6868 36.6679 42.9984 36.3404 42.9984 35.94V31.7689C42.9984 30.4732 41.9785 29.4185 40.7178 29.4185Z" fill="white"/>
      <path d="M41.2423 21.2575C41.2423 21.0974 41.1927 20.9445 41.1006 20.8135L37.6656 16.1984C37.531 16.0164 37.3256 15.9072 37.106 15.9072H28.012C27.6224 15.9072 27.3037 16.2348 27.3037 16.6351V27.9618H41.2423V21.2575ZM38.0905 23.2666C38.0905 23.667 37.7718 23.9946 37.3822 23.9946H31.1637C30.7742 23.9946 30.4555 23.667 30.4555 23.2666V19.1538C30.4555 18.7462 30.7742 18.4259 31.1637 18.4259H35.5408C35.7674 18.4259 35.9728 18.5278 36.1074 18.7098L37.9418 21.1847C38.0409 21.3085 38.0905 21.4687 38.0905 21.6288V23.2666Z" fill="white"/>
      <path d="M35.1857 33.1655C33.3039 33.1655 31.7783 34.7335 31.7783 36.6683C31.7783 38.6025 33.3039 40.1712 35.1857 40.1712C37.0683 40.1712 38.5939 38.6025 38.5939 36.6683C38.5939 34.7335 37.0683 33.1655 35.1857 33.1655Z" fill="white"/>
      <path d="M17.6084 40.0659C19.4398 39.6209 20.5735 37.7344 20.1406 35.8521C19.7077 33.9698 17.8721 32.8046 16.0407 33.2495C14.2093 33.6945 13.0756 35.5811 13.5085 37.4633C13.9414 39.3456 15.777 40.5108 17.6084 40.0659Z" fill="white"/>
    </g>
  </g>
  <defs>
    <clipPath id="clip0_0_1">
      <rect width="36" height="36" fill="white" transform="translate(8 8)"/>
    </clipPath>
    <clipPath id="clip1_0_1">
      <rect width="36" height="37" fill="white" transform="translate(8 8)"/>
    </clipPath>
  </defs>
</svg>